# xmcd CD database file
#
# Track frame offsets:
#	150
#	10948
#	26174
#	40321
#	55469
#	69929
#	84170
#	97331
#	111707
#	127178
#	141507
#	153871
#	166977
#	179735
#	193586
#	207670
#	219634
#	236087
#	251194
#	264277
#	277366
#
# Disc length: 3844 seconds
#
# Revision: 0
# Processed by: cddbd v1.5.2PL0 Copyright (c) Steve Scherf et al.
# Submitted via: CDex 1.51
#
DISCID=540f0215
DTITLE=King Oliver - King Oliver And His Orchestra 1929-1930 [CD1]
DYEAR=2002
DGENRE=Jazz
TTITLE0=West End Blues
TTITLE1=I've Got That Thing
TTITLE2=Freakish Light Blues
TTITLE3=Call Of The Freaks
TTITLE4=The Trumpet's Prayer
TTITLE5=Can I Tell You
TTITLE6=My Good Man Sam
TTITLE7=What Do You Want Me To Do
TTITLE8=Sweet Like This
TTITLE9=Too Late
TTITLE10=I'm A Lonesome Sweetheart
TTITLE11=Want You Just Myself
TTITLE12=I Can't Stop Loving You
TTITLE13=Everybody Does It In Hawaii
TTITLE14=Frankie And Johnny
TTITLE15=New Orleans Shout
TTITLE16=St. James Infirmary
TTITLE17=When You're Smiling
TTITLE18=I Must Have It
TTITLE19=Rhythm Club Stom (Cuwiship Glide)
TTITLE20=You're Just My Type
EXTD=YEAR: 2002
EXTT0=
EXTT1=
EXTT2=
EXTT3=
EXTT4=
EXTT5=
EXTT6=
EXTT7=
EXTT8=
EXTT9=
EXTT10=
EXTT11=
EXTT12=
EXTT13=
EXTT14=
EXTT15=
EXTT16=
EXTT17=
EXTT18=
EXTT19=
EXTT20=
PLAYORDER=
